<?xml version="1.0" encoding="iso-8859-1"?>

<!DOCTYPE svg PUBLIC "-//W3C//DTD SVG 1.1//EN" "http://www.w3.org/Graphics/SVG/1.1/DTD/svg11.dtd">
<!-- Uploaded to: SVG Repo, www.svgrepo.com, Generator: SVG Repo Mixer Tools -->
<svg height="800px" width="800px" version="1.1" id="_x34_" xmlns="http://www.w3.org/2000/svg" xmlns:xlink="http://www.w3.org/1999/xlink" 
	 viewBox="0 0 512 512"  xml:space="preserve">
<g>
	<g>
		<path style="fill:#5B4C43;" d="M382.724,35.639v440.697c0,19.647-16.062,35.639-35.639,35.639H35.639
			c-1.723,0-3.447-0.138-5.17-0.414c-0.827-0.138-1.654-0.276-2.482-0.483c-0.827-0.138-1.654-0.345-2.482-0.62
			c-0.827-0.276-1.654-0.552-2.413-0.827c-0.62-0.207-1.172-0.414-1.792-0.69c-0.896-0.414-1.723-0.827-2.619-1.31
			c-1.861-1.034-3.723-2.205-5.377-3.584c-0.138-0.138-0.276-0.207-0.414-0.345c-0.827-0.69-1.654-1.448-2.413-2.206
			c-0.759-0.759-1.517-1.586-2.206-2.413c-0.759-0.896-1.517-1.861-2.137-2.826c-0.69-0.965-1.241-1.93-1.792-2.964
			c-0.483-0.827-0.896-1.723-1.31-2.62c-0.276-0.552-0.483-1.172-0.69-1.792c-0.62-1.585-1.103-3.24-1.447-4.895
			c-0.207-0.689-0.345-1.447-0.414-2.206c-0.138-0.551-0.207-1.172-0.276-1.792C0.069,478.818,0,477.577,0,476.336V35.639
			C0,16.061,16.062,0,35.639,0h311.445c2.827,0,5.584,0.345,8.272,1.034c12.96,3.102,23.231,13.373,26.333,26.333
			C382.379,30.055,382.724,32.813,382.724,35.639z"/>
		<path style="opacity:0.1;fill:#040000;" d="M382.724,466.203v10.133c0,19.647-16.062,35.639-35.639,35.639H35.639
			c-1.723,0-3.447-0.138-5.17-0.414c-0.827-0.138-1.654-0.276-2.482-0.483c-0.827-0.138-1.654-0.345-2.482-0.62
			c-0.827-0.276-1.654-0.552-2.413-0.827c-0.62-0.207-1.172-0.414-1.792-0.69c-0.896-0.414-1.723-0.827-2.619-1.31
			c-1.861-1.034-3.723-2.205-5.377-3.584c-0.138-0.138-0.276-0.207-0.414-0.345c-0.827-0.69-1.654-1.448-2.413-2.206
			c-0.759-0.759-1.517-1.586-2.206-2.413c-0.759-0.896-1.517-1.861-2.137-2.826c-0.69-0.965-1.241-1.93-1.792-2.964
			c-0.483-0.827-0.896-1.723-1.31-2.62c-0.276-0.552-0.483-1.172-0.69-1.792c-0.689-1.585-1.172-3.171-1.447-4.895
			c-0.207-0.689-0.345-1.447-0.414-2.206c-0.138-0.551-0.207-1.172-0.276-1.792C0.069,478.818,0,477.577,0,476.336v-10.133
			c0,19.646,16.062,35.639,35.639,35.639h311.445C366.662,501.842,382.724,485.849,382.724,466.203z"/>
		<path style="opacity:0.1;fill:#040000;" d="M191.363,396.638c-40.731,0-79.682-14.581-110.319-41.179
			c-4.143,2.356-8.846,3.615-13.696,3.615c-15.315,0-27.772-12.454-27.772-27.769c0-6.557,2.37-12.898,6.527-17.86
			c-15.143-25.77-23.121-55.1-23.121-85.185c0-29.762,7.819-58.823,22.663-84.397c-3.908-4.874-6.069-10.939-6.069-17.314
			c0-15.315,12.457-27.769,27.772-27.769c4.457,0,8.829,1.084,12.747,3.11c30.775-27.136,70.072-42.014,111.268-42.014
			c41.451,0,80.921,15.032,111.773,42.458c4.113-2.316,8.778-3.554,13.578-3.554c15.315,0,27.769,12.454,27.769,27.769
			c0,6.752-2.491,13.235-6.86,18.25c14.487,25.352,22.121,54.084,22.121,83.462c0,29.715-7.789,58.715-22.585,84.263
			c4.665,5.069,7.324,11.74,7.324,18.782c0,15.315-12.454,27.769-27.769,27.769c-5.197,0-10.179-1.42-14.5-4.079
			C271.502,381.889,232.37,396.638,191.363,396.638z"/>
		<g>
			<path style="fill:#7D6B64;" d="M320.515,309.077c14.69-23.426,23.193-51.127,23.193-80.818c0-29.32-8.29-56.7-22.644-79.939
				c4.99-3.576,8.251-9.42,8.251-16.014c0-10.86-8.835-19.696-19.695-19.696c-5.134,0-9.814,1.976-13.324,5.206
				C268.974,91.85,232.03,75.913,191.362,75.913c-40.367,0-77.061,15.707-104.321,41.333c-3.428-2.89-7.85-4.636-12.674-4.636
				c-10.86,0-19.695,8.835-19.695,19.696c0,6.209,2.891,11.752,7.393,15.365c-14.601,23.377-23.049,50.994-23.049,80.588
				c0,29.951,8.649,57.879,23.578,81.435c-4.806,3.595-7.922,9.33-7.922,15.78c0,10.86,8.835,19.695,19.695,19.695
				c5.157,0,9.855-1.995,13.37-5.25c27.187,25.243,63.6,40.686,103.625,40.686c40.341,0,77.013-15.686,104.267-41.284
				c3.572,3.608,8.523,5.848,13.99,5.848c10.86,0,19.695-8.835,19.695-19.695C329.315,318.64,325.815,312.61,320.515,309.077z"/>
			<path style="fill:#E0CD90;" d="M191.362,330.103c-56.157,0-101.844-45.687-101.844-101.844s45.687-101.844,101.844-101.844
				s101.844,45.687,101.844,101.844S247.519,330.103,191.362,330.103z"/>
			<path style="fill:#7D6B64;" d="M191.362,271.185c-23.669,0-42.926-19.257-42.926-42.926c0-23.669,19.257-42.926,42.926-42.926
				s42.926,19.257,42.926,42.926C234.288,251.928,215.031,271.185,191.362,271.185z"/>
			<path style="fill:#9F907C;" d="M191.362,262.768c-19.028,0-34.509-15.481-34.509-34.509c0-19.029,15.481-34.509,34.509-34.509
				s34.509,15.481,34.509,34.509C225.871,247.287,210.39,262.768,191.362,262.768z"/>
			<g>
				<path style="fill:#CBCBCB;" d="M74.367,144.78c-6.878,0-12.474-5.596-12.474-12.474c0-6.878,5.596-12.474,12.474-12.474
					c6.878,0,12.474,5.596,12.474,12.474C86.841,139.184,81.245,144.78,74.367,144.78z"/>
				<path style="fill:#CBCBCB;" d="M309.619,144.78c-6.878,0-12.474-5.596-12.474-12.474c0-6.878,5.596-12.474,12.474-12.474
					s12.474,5.596,12.474,12.474C322.093,139.184,316.497,144.78,309.619,144.78z"/>
				<path style="fill:#CBCBCB;" d="M74.367,337.948c-6.878,0-12.474-5.596-12.474-12.474S67.489,313,74.367,313
					c6.878,0,12.474,5.596,12.474,12.474S81.245,337.948,74.367,337.948z"/>
				<path style="fill:#CBCBCB;" d="M309.619,337.948c-6.878,0-12.474-5.596-12.474-12.474S302.741,313,309.619,313
					s12.474,5.596,12.474,12.474S316.497,337.948,309.619,337.948z"/>
			</g>
			<g>
				<path style="fill:#FDF3DC;" d="M74.367,137.295c-2.751,0-4.989-2.238-4.989-4.99c0-2.751,2.238-4.99,4.989-4.99
					c2.751,0,4.99,2.238,4.99,4.99C79.357,135.057,77.118,137.295,74.367,137.295z"/>
				<path style="fill:#FDF3DC;" d="M309.619,137.295c-2.751,0-4.99-2.238-4.99-4.99c0-2.751,2.238-4.99,4.99-4.99
					c2.751,0,4.99,2.238,4.99,4.99C314.609,135.057,312.371,137.295,309.619,137.295z"/>
				<path style="fill:#FDF3DC;" d="M74.367,330.463c-2.751,0-4.989-2.238-4.989-4.99c0-2.751,2.238-4.99,4.989-4.99
					c2.751,0,4.99,2.238,4.99,4.99C79.357,328.225,77.118,330.463,74.367,330.463z"/>
				<path style="fill:#FDF3DC;" d="M309.619,330.463c-2.751,0-4.99-2.238-4.99-4.99c0-2.751,2.238-4.99,4.99-4.99
					c2.751,0,4.99,2.238,4.99,4.99C314.609,328.225,312.371,330.463,309.619,330.463z"/>
			</g>
		</g>
		<g style="opacity:0.1;">
			<g>
				<path style="fill:#040000;" d="M134.767,430.081c0-1.172-0.069-2.206-0.207-3.171c-0.138-0.965-0.345-1.792-0.69-2.62
					c-0.275-0.827-0.689-1.585-1.241-2.275c-1.241-1.654-2.689-2.895-4.343-3.722c-1.654-0.758-3.722-1.172-6.066-1.172h-12.477
					v33.364h12.477c2.344,0,4.412-0.345,6.066-1.172c1.654-0.758,3.102-1.999,4.343-3.654c0.552-0.758,0.965-1.516,1.241-2.275
					c0.345-0.827,0.552-1.723,0.69-2.62c0.138-0.965,0.207-1.999,0.207-3.171c0.069-1.172,0.069-2.413,0.069-3.791
					C134.836,432.425,134.836,431.184,134.767,430.081z M128.011,437.251c0,0.896-0.069,1.723-0.138,2.413
					c-0.138,0.69-0.276,1.241-0.414,1.723c-0.207,0.414-0.483,0.896-0.758,1.241c-1.172,1.379-2.826,2.068-5.032,2.068h-5.17
					v-21.715h5.17c2.206,0,3.86,0.689,5.032,2.068c0.276,0.345,0.552,0.758,0.758,1.241c0.138,0.483,0.276,1.034,0.414,1.723
					c0.069,0.621,0.138,1.448,0.138,2.413c0.069,0.965,0.069,2.068,0.069,3.378C128.08,435.114,128.08,436.285,128.011,437.251z"/>
				<path style="fill:#040000;" d="M165.718,422.981v-5.859H142.97v33.364h22.748v-5.79h-16.061v-8.135h13.649v-5.79h-13.649v-7.79
					H165.718z"/>
				<path style="fill:#040000;" d="M198.186,417.122l-9.03,18.061l-9.03-18.061h-6.618v33.364h6.756v-19.44l6.617,12.684h4.55
					l6.617-12.684v19.44h6.756v-33.364H198.186z"/>
				<path style="fill:#040000;" d="M238.375,429.53c-0.069-1.31-0.207-2.482-0.414-3.585c-0.276-1.034-0.621-2.068-1.034-2.964
					c-0.483-0.896-1.172-1.792-2.068-2.62c-1.172-1.103-2.482-1.999-3.929-2.551c-1.517-0.621-3.24-0.965-5.239-0.965
					c-1.999,0-3.791,0.344-5.308,0.965c-1.516,0.552-2.826,1.448-3.998,2.551c-0.827,0.827-1.517,1.723-1.999,2.62
					s-0.827,1.93-1.034,2.964c-0.207,1.103-0.345,2.275-0.345,3.585c-0.069,1.241-0.069,2.689-0.069,4.274
					c0,1.585,0,3.033,0.069,4.343c0,1.241,0.138,2.412,0.345,3.516c0.207,1.103,0.551,2.068,1.034,2.964
					c0.483,0.896,1.172,1.792,1.999,2.62c1.172,1.172,2.481,1.999,3.998,2.62c1.517,0.62,3.309,0.896,5.308,0.896
					c1.999,0,3.722-0.276,5.239-0.896c1.448-0.621,2.758-1.448,3.929-2.62c0.896-0.827,1.585-1.723,2.068-2.62
					c0.414-0.896,0.758-1.861,1.034-2.964c0.207-1.103,0.345-2.275,0.414-3.516c0-1.31,0.069-2.758,0.069-4.343
					C238.444,432.219,238.375,430.771,238.375,429.53z M231.619,437.802c-0.069,1.034-0.207,1.861-0.345,2.551
					c-0.138,0.689-0.275,1.241-0.482,1.654c-0.207,0.414-0.483,0.827-0.827,1.172c-0.483,0.483-1.103,0.965-1.792,1.31
					c-0.758,0.345-1.585,0.483-2.481,0.483c-0.965,0-1.792-0.138-2.551-0.483c-0.689-0.345-1.31-0.827-1.861-1.31
					c-0.276-0.344-0.551-0.758-0.758-1.172c-0.207-0.414-0.414-0.965-0.552-1.654c-0.138-0.69-0.207-1.517-0.276-2.551
					c0-1.034-0.069-2.413-0.069-3.998c0-1.585,0.069-2.895,0.069-3.929c0.069-1.034,0.138-1.93,0.276-2.62
					c0.138-0.689,0.345-1.241,0.552-1.654c0.207-0.414,0.483-0.827,0.758-1.172c0.552-0.483,1.172-0.965,1.861-1.241
					c0.758-0.345,1.585-0.482,2.551-0.482c0.896,0,1.723,0.138,2.481,0.482c0.69,0.276,1.31,0.759,1.792,1.241
					c0.345,0.345,0.621,0.758,0.827,1.172c0.207,0.414,0.344,0.965,0.482,1.654s0.276,1.585,0.345,2.62
					c0,1.034,0.069,2.344,0.069,3.929C231.688,435.389,231.619,436.768,231.619,437.802z"/>
				<path style="fill:#040000;" d="M266.224,417.122v20.473l-13.649-20.473h-6.066v33.364h6.755v-20.473l13.718,20.473h5.997
					v-33.364H266.224z"/>
			</g>
			<g>
				<path style="fill:#F1F1F1;" d="M134.767,430.081c0-1.172-0.069-2.206-0.207-3.171c-0.138-0.965-0.345-1.792-0.69-2.62
					c-0.275-0.827-0.689-1.585-1.241-2.275c-1.241-1.654-2.689-2.895-4.343-3.722c-1.654-0.758-3.722-1.172-6.066-1.172h-12.477
					v33.364h12.477c2.344,0,4.412-0.345,6.066-1.172c1.654-0.758,3.102-1.999,4.343-3.654c0.552-0.758,0.965-1.516,1.241-2.275
					c0.345-0.827,0.552-1.723,0.69-2.62c0.138-0.965,0.207-1.999,0.207-3.171c0.069-1.172,0.069-2.413,0.069-3.791
					C134.836,432.425,134.836,431.184,134.767,430.081z M128.011,437.251c0,0.896-0.069,1.723-0.138,2.413
					c-0.138,0.69-0.276,1.241-0.414,1.723c-0.207,0.414-0.483,0.896-0.758,1.241c-1.172,1.379-2.826,2.068-5.032,2.068h-5.17
					v-21.715h5.17c2.206,0,3.86,0.689,5.032,2.068c0.276,0.345,0.552,0.758,0.758,1.241c0.138,0.483,0.276,1.034,0.414,1.723
					c0.069,0.621,0.138,1.448,0.138,2.413c0.069,0.965,0.069,2.068,0.069,3.378C128.08,435.114,128.08,436.285,128.011,437.251z"/>
				<path style="fill:#F1F1F1;" d="M165.718,422.981v-5.859H142.97v33.364h22.748v-5.79h-16.061v-8.135h13.649v-5.79h-13.649v-7.79
					H165.718z"/>
				<path style="fill:#F1F1F1;" d="M198.186,417.122l-9.03,18.061l-9.03-18.061h-6.618v33.364h6.756v-19.44l6.617,12.684h4.55
					l6.617-12.684v19.44h6.756v-33.364H198.186z"/>
				<path style="fill:#F1F1F1;" d="M238.375,429.53c-0.069-1.31-0.207-2.482-0.414-3.585c-0.276-1.034-0.621-2.068-1.034-2.964
					c-0.483-0.896-1.172-1.792-2.068-2.62c-1.172-1.103-2.482-1.999-3.929-2.551c-1.517-0.621-3.24-0.965-5.239-0.965
					c-1.999,0-3.791,0.344-5.308,0.965c-1.516,0.552-2.826,1.448-3.998,2.551c-0.827,0.827-1.517,1.723-1.999,2.62
					s-0.827,1.93-1.034,2.964c-0.207,1.103-0.345,2.275-0.345,3.585c-0.069,1.241-0.069,2.689-0.069,4.274
					c0,1.585,0,3.033,0.069,4.343c0,1.241,0.138,2.412,0.345,3.516c0.207,1.103,0.551,2.068,1.034,2.964
					c0.483,0.896,1.172,1.792,1.999,2.62c1.172,1.172,2.481,1.999,3.998,2.62c1.517,0.62,3.309,0.896,5.308,0.896
					c1.999,0,3.722-0.276,5.239-0.896c1.448-0.621,2.758-1.448,3.929-2.62c0.896-0.827,1.585-1.723,2.068-2.62
					c0.414-0.896,0.758-1.861,1.034-2.964c0.207-1.103,0.345-2.275,0.414-3.516c0-1.31,0.069-2.758,0.069-4.343
					C238.444,432.219,238.375,430.771,238.375,429.53z M231.619,437.802c-0.069,1.034-0.207,1.861-0.345,2.551
					c-0.138,0.689-0.275,1.241-0.482,1.654c-0.207,0.414-0.483,0.827-0.827,1.172c-0.483,0.483-1.103,0.965-1.792,1.31
					c-0.758,0.345-1.585,0.483-2.481,0.483c-0.965,0-1.792-0.138-2.551-0.483c-0.689-0.345-1.31-0.827-1.861-1.31
					c-0.276-0.344-0.551-0.758-0.758-1.172c-0.207-0.414-0.414-0.965-0.552-1.654c-0.138-0.69-0.207-1.517-0.276-2.551
					c0-1.034-0.069-2.413-0.069-3.998c0-1.585,0.069-2.895,0.069-3.929c0.069-1.034,0.138-1.93,0.276-2.62
					c0.138-0.689,0.345-1.241,0.552-1.654c0.207-0.414,0.483-0.827,0.758-1.172c0.552-0.483,1.172-0.965,1.861-1.241
					c0.758-0.345,1.585-0.482,2.551-0.482c0.896,0,1.723,0.138,2.481,0.482c0.69,0.276,1.31,0.759,1.792,1.241
					c0.345,0.345,0.621,0.758,0.827,1.172c0.207,0.414,0.344,0.965,0.482,1.654s0.276,1.585,0.345,2.62
					c0,1.034,0.069,2.344,0.069,3.929C231.688,435.389,231.619,436.768,231.619,437.802z"/>
				<path style="fill:#F1F1F1;" d="M266.224,417.122v20.473l-13.649-20.473h-6.066v33.364h6.755v-20.473l13.718,20.473h5.997
					v-33.364H266.224z"/>
			</g>
		</g>
		<path style="opacity:0.2;fill:#040000;" d="M293.506,228.559c0,2.963-0.127,5.901-0.38,8.796
			c-4.466-52.229-48.405-93.357-101.765-93.357s-97.299,41.128-101.765,93.357c-0.253-2.896-0.38-5.833-0.38-8.796
			c0-56.323,45.822-102.145,102.144-102.145C247.685,126.414,293.506,172.236,293.506,228.559z"/>
	</g>
	<path style="opacity:0.1;fill:#040000;" d="M347.085,512c14.702,0,27.403-9.026,32.834-21.809c0.303-0.713,0.441-1.5,0.698-2.235
		c0.511-1.462,1.07-2.904,1.388-4.445c0.143-0.692,0.116-1.436,0.218-2.141c0.238-1.654,0.51-3.3,0.51-5.017v-0.004v-10.128V45.788
		V35.657c0-4.902-1.003-9.581-2.813-13.842c-1.433-3.373-3.493-6.381-5.841-9.134c-2.102-2.464-4.411-4.743-7.099-6.562
		c-0.361-0.244-0.782-0.396-1.153-0.628c-5.466-3.416-11.856-5.481-18.741-5.481H191.362V512H347.085z"/>
</g>
</svg>